<svg xmlns="http://www.w3.org/2000/svg" fill="#000000" class="bi bi-chat-right-text" viewBox="0 0 50 50" id="Chat-Right-Text--Streamline-Bootstrap.svg" height="50" width="50"><desc>Chat Right Text Streamline Icon: https://streamlinehq.com</desc><path d="M6.25 3.125a3.125 3.125 0 0 0 -3.125 3.125v25a3.125 3.125 0 0 0 3.125 3.125h29.95625a6.25 6.25 0 0 1 4.41875 1.8312499999999998l6.25 6.25V6.25a3.125 3.125 0 0 0 -3.125 -3.125zm37.5 -3.125a6.25 6.25 0 0 1 6.25 6.25v39.978125a1.5625 1.5625 0 0 1 -2.6687499999999997 1.103125l-8.915625 -8.915625a3.125 3.125 0 0 0 -2.209375 -0.9156249999999999H6.25a6.25 6.25 0 0 1 -6.25 -6.25V6.25a6.25 6.25 0 0 1 6.25 -6.25z" stroke-width="1"></path><path d="M9.375 10.9375a1.5625 1.5625 0 0 1 1.5625 -1.5625h28.125a1.5625 1.5625 0 0 1 0 3.125h-28.125a1.5625 1.5625 0 0 1 -1.5625 -1.5625M9.375 18.75a1.5625 1.5625 0 0 1 1.5625 -1.5625h28.125a1.5625 1.5625 0 0 1 0 3.125h-28.125A1.5625 1.5625 0 0 1 9.375 18.75m0 7.8125a1.5625 1.5625 0 0 1 1.5625 -1.5625h15.625a1.5625 1.5625 0 0 1 0 3.125h-15.625a1.5625 1.5625 0 0 1 -1.5625 -1.5625" stroke-width="1"></path></svg>