<svg xmlns="http://www.w3.org/2000/svg" fill="#000000" class="bi bi-house" viewBox="0 0 50 50" id="House--Streamline-Bootstrap.svg" height="50" width="50"><desc>House Streamline Icon: https://streamlinehq.com</desc><path d="M27.209375 4.6875a3.125 3.125 0 0 0 -4.41875 0L2.0187500000000003 25.456250000000004a1.5625 1.5625 0 0 0 2.2125 2.2125L6.25 25.646875V42.1875A4.6875 4.6875 0 0 0 10.9375 46.875h28.125a4.6875 4.6875 0 0 0 4.6875 -4.6875V25.646875l2.0187500000000003 2.021875a1.5625 1.5625 0 0 0 2.2125 -2.2125L40.625 18.103125000000002V7.8125a1.5625 1.5625 0 0 0 -1.5625 -1.5625h-3.125a1.5625 1.5625 0 0 0 -1.5625 1.5625v4.0406249999999995zM40.625 22.521874999999998V42.1875a1.5625 1.5625 0 0 1 -1.5625 1.5625h-28.125a1.5625 1.5625 0 0 1 -1.5625 -1.5625V22.521874999999998l15.625 -15.625z" stroke-width="1"></path></svg>