<svg xmlns="http://www.w3.org/2000/svg" fill="#000000" class="bi bi-joystick" viewBox="0 0 50 50" id="Joystick--Streamline-Bootstrap.svg" height="50" width="50"><desc>Joystick Streamline Icon: https://streamlinehq.com</desc><path d="M31.25 6.25a6.25 6.25 0 0 1 -4.6875 6.0531250000000005v15.896875c2.696875 0.259375 4.6875 1.178125 4.6875 2.26875 0 1.29375 -2.796875 2.34375 -6.25 2.34375s-6.25 -1.05 -6.25 -2.34375c0 -1.09375 1.990625 -2.009375 4.6875 -2.26875V12.303125A6.25 6.25 0 1 1 31.25 6.25" stroke-width="1"></path><path d="M0 30.203124999999996v5.3656250000000005a3.125 3.125 0 0 0 1.7281250000000001 2.79375l20.478125 10.240625a6.25 6.25 0 0 0 5.5875 0l20.478125 -10.240625a3.125 3.125 0 0 0 1.7281250000000001 -2.79375V30.203124999999996c0 -0.3125 -0.1875 -0.59375 -0.475 -0.71875L29.6875 20.984375v3.103125l16.334375 6.8062499999999995a0.390625 0.390625 0 0 1 0.003125 0.71875l-18.5625 7.95625a6.25 6.25 0 0 1 -4.925 0l-18.5625 -7.95625a0.390625 0.390625 0 0 1 0.003125 -0.71875L20.3125 24.087500000000002l-0.040625 -3.0875L0.475 29.484375a0.78125 0.78125 0 0 0 -0.475 0.71875" stroke-width="1"></path></svg>